<svg width="16" height="21" viewBox="0 0 16 21" fill="none" xmlns="http://www.w3.org/2000/svg">
<path d="M7.66491 20.904C12.4809 20.904 15.3649 18.692 15.3929 14.352V0.856019H11.3609V3.04002C10.5209 1.55602 9.0929 0.52002 6.7129 0.52002C3.0729 0.52002 0.272903 3.46002 0.272903 7.66001V7.85601C0.272903 12.196 3.1009 14.856 6.6569 14.856C8.8129 14.856 10.5489 13.568 11.3609 12.14V14.352C11.3609 16.648 10.1289 17.936 7.66491 17.936C5.59291 17.936 4.6689 17.096 4.4169 15.808H0.384903C0.776903 18.832 2.93291 20.904 7.66491 20.904ZM7.8609 11.804C5.8449 11.804 4.4169 10.292 4.4169 7.85601V7.63201C4.4169 5.22401 5.6769 3.60002 7.9449 3.60002C10.1569 3.60002 11.4729 5.11201 11.4729 7.60401V7.80001C11.4729 10.292 9.9889 11.804 7.8609 11.804Z" fill="black"/>
</svg>
